<svg width="128" height="29" viewBox="0 0 128 29" fill="none" xmlns="http://www.w3.org/2000/svg">
<g clip-path="url(#clip0_955_85)">
<path d="M39.9725 4.4825C39.738 3.61602 39.2807 2.82609 38.6459 2.19139C38.0112 1.55669 37.2212 1.09938 36.3547 0.865C33.1825 0 20.4165 0 20.4165 0C20.4165 0 7.64997 0.02625 4.47822 0.89125C3.61178 1.12567 2.82187 1.583 2.18717 2.2177C1.55247 2.85239 1.09514 3.6423 0.860723 4.50875C-0.0987775 10.145 -0.471027 18.7327 0.886973 24.1432C1.12139 25.0097 1.57872 25.7996 2.21342 26.4343C2.84812 27.069 3.63803 27.5263 4.50447 27.7607C7.67647 28.6257 20.4427 28.6257 20.4427 28.6257C20.4427 28.6257 33.209 28.6257 36.381 27.7607C37.2474 27.5263 38.0373 27.069 38.672 26.4343C39.3067 25.7996 39.7641 25.0097 39.9985 24.1432C41.0102 18.4992 41.3222 9.91675 39.9722 4.48275" fill="#FF0000"/>
<path d="M16.3516 20.447L26.9421 14.313L16.3516 8.17871V20.447Z" fill="white"/>
<path d="M122.81 8.30995C124.199 8.30995 125.248 8.57195 125.982 9.06995C126.716 9.56811 127.24 10.3546 127.555 11.4294C127.869 12.5042 128 13.9719 128 15.8594V18.9267H121.263V19.8702L121.368 22.4654C121.447 23.0422 121.578 23.4617 121.788 23.7237C121.998 23.9859 122.338 24.1169 122.784 24.1169C123.387 24.1169 123.806 23.8812 124.016 23.4094C124.252 22.9374 124.357 22.1509 124.383 21.0762L127.869 21.2859C127.895 21.4432 127.896 21.6529 127.896 21.9149C127.896 23.5664 127.45 24.7987 126.532 25.6112C125.615 26.4237 124.357 26.8432 122.705 26.8432C120.713 26.8432 119.324 26.2142 118.537 24.9822C117.751 23.7499 117.331 21.8099 117.331 19.2149V16.0429C117.42 11.5867 118.204 8.32295 122.81 8.30995ZM74.34 8.6507V21.7839C74.34 22.5704 74.4185 23.1472 74.602 23.4879C74.9743 24.2167 75.939 24.0304 76.4633 23.6714C76.7658 23.4668 77.0098 23.1867 77.171 22.8589V8.65045H81.1818V26.5547H78.036L77.6953 24.3527H77.6167C76.7517 26.0042 75.467 26.8429 73.7632 26.8429C71.1407 26.8364 70.499 24.9469 70.3462 23.0279L70.3363 22.8927C70.3173 22.602 70.3063 22.3109 70.303 22.0197V8.6507H74.34ZM95.023 8.6507V21.7839C95.023 22.5704 95.1015 23.1472 95.285 23.4879C95.6575 24.2167 96.622 24.0304 97.1463 23.6714C97.4488 23.4668 97.6928 23.1867 97.854 22.8589V8.65045H101.865V26.5547H98.719L98.3783 24.3527H98.2998C97.4348 26.0042 96.15 26.8429 94.4463 26.8429C91.8238 26.8364 91.182 24.9469 91.0293 23.0279L91.0193 22.8927C91.0003 22.602 90.9893 22.3109 90.986 22.0197V8.6507H95.023ZM62.7008 8.30995C64.0115 8.30995 65.0863 8.57195 65.8728 9.12245C66.659 9.67295 67.262 10.5119 67.629 11.6652C67.996 12.8187 68.1795 14.3652 68.1795 16.2789V18.8739C68.1795 20.7877 67.996 22.3082 67.629 23.4614C67.262 24.6152 66.6853 25.4539 65.8728 26.0044C65.0603 26.5287 63.959 26.8169 62.596 26.8169C61.1803 26.8432 60.0793 26.5549 59.2668 26.0307C58.4543 25.4802 57.8773 24.6412 57.5368 23.4879C57.1958 22.3344 57.0385 20.8139 57.0385 18.9004V16.3049C57.0385 14.3912 57.222 12.8184 57.6152 11.6649C58.0085 10.4854 58.6113 9.64645 59.4503 9.12245C60.289 8.59795 61.3638 8.3097 62.7008 8.3097M108.156 1.1272V10.5642H108.182C108.549 9.8827 109.021 9.3322 109.677 8.9127C110.289 8.50134 111.01 8.2823 111.747 8.2837C112.717 8.2837 113.451 8.5457 114.002 9.0437C114.552 9.5682 114.946 10.3807 115.182 11.5079C115.41 12.5999 115.54 14.1102 115.548 16.0147L115.549 16.2004V19.0314C115.549 21.6789 115.208 23.6452 114.579 24.9034C113.924 26.1617 112.927 26.7909 111.564 26.7909C110.804 26.7909 110.122 26.6074 109.493 26.2667C108.937 25.9423 108.476 25.4774 108.156 24.9187L108.104 24.8247H108.025L107.606 26.5287H104.277V1.12745L108.156 1.1272ZM92.113 2.0447V5.29495H88.1285V26.5547H84.1965V5.2952H80.1857V2.04495L92.113 2.0447ZM48.8857 2.0447L48.8883 2.0547C48.9265 2.22495 49.4565 4.5812 50.0395 7.32645L50.0855 7.54395L50.155 7.8727L50.2015 8.09345L50.2248 8.2042L50.2713 8.4262L50.2945 8.53745L50.3408 8.7602L50.4083 9.08595C50.802 10.9869 51.1778 12.8934 51.4025 14.2604H51.5075C51.7227 13.0342 52.0355 11.4649 52.369 9.8627L52.4565 9.4442C52.5003 9.23453 52.5445 9.0252 52.589 8.8162L52.6575 8.49195C53.1104 6.36866 53.5768 4.24828 54.0568 2.13095L54.0643 2.0972L54.0763 2.0447H58.087L53.447 18.5859V26.5287H49.4888V18.6119H49.4625L44.875 2.04445L48.8857 2.0447ZM62.622 11.0884C62.0715 11.0884 61.7045 11.3769 61.4688 11.9799C61.233 12.5829 61.128 13.5002 61.128 14.7849V20.3684C61.128 21.6792 61.2328 22.6489 61.4425 23.2259C61.6523 23.8026 62.0455 24.0909 62.622 24.0909C63.1725 24.0909 63.5658 23.8026 63.8018 23.2259C64.0378 22.6489 64.1425 21.6792 64.1425 20.3684V14.7847C64.1425 13.5002 64.0375 12.5564 63.8018 11.9797C63.5658 11.3769 63.1725 11.0884 62.622 11.0884ZM108.864 11.6129C108.545 11.9079 108.317 12.2717 108.182 12.7264L108.156 12.8187V22.9897C108.481 23.5402 108.943 23.9072 109.755 23.9334C110.175 23.9334 110.515 23.7762 110.778 23.4617C111.04 23.1472 111.223 22.6229 111.328 21.8887C111.429 21.1842 111.481 20.2139 111.485 18.9777V16.4887C111.485 15.0732 111.433 13.9984 111.354 13.2382C111.249 12.4779 111.119 11.9274 110.883 11.6129C110.426 10.9574 109.441 10.9654 108.864 11.6129ZM122.732 11.0099C122.286 11.0361 121.971 11.1672 121.788 11.4032C121.578 11.6652 121.447 12.0584 121.368 12.6352C121.291 13.2002 121.264 15.1752 121.263 15.2542V16.5412H124.199V15.4062V15.4279C124.197 15.8247 124.189 15.1977 124.171 14.4279L124.169 14.3244C124.152 13.6479 124.128 12.8937 124.094 12.6352C124.016 12.0322 123.885 11.6127 123.675 11.3769C123.465 11.1409 123.151 11.0099 122.731 11.0099" fill="#282828"/>
</g>
<defs>
<clipPath id="clip0_955_85">
<rect width="128" height="29" fill="white"/>
</clipPath>
</defs>
</svg>
